<svg id="Layer_1" data-name="Layer 1" xmlns="http://www.w3.org/2000/svg" viewBox="0 0 488.67 488.78"><path d="M218.55,0c8.79,1.26,17.63,2.17,26.34,3.83,42.31,8,78.53,27.68,108.68,58.31,27.42,27.86,45.55,61,53.34,99.34,9.78,48.26,3,94.27-21.15,137.23-7.75,13.76-17.54,26.37-26.4,39.5l-2.51,1c1.57.81,3.47,1.29,4.67,2.48q60.09,59,120,118.12c2.85,2.81,4.8,6.54,7.16,9.85v6.68c-5,10.62-12.54,14.79-21.29,11.27a25,25,0,0,1-7.69-5.45Q399.24,422.79,338.9,363.33c-1.22-1.21-2.5-2.37-3.79-3.59-6.48,4.43-12.63,8.92-19.05,13-36,22.7-75.47,33.31-117.86,31.73-55.91-2.1-103.55-23.59-142.43-63.89-29.22-30.29-47.34-66.4-53.41-108-7.87-54,3.88-103.7,36.31-147.87,31.21-42.51,73-69.18,124.54-80.2C171.27,2.71,179.54,2,187.71.85c1.39-.2,2.75-.56,4.12-.85Zm-187,201.31c.37,7.07.35,13,1.05,18.82C37,257,51,289.77,76.68,316.86c44.87,47.39,100.32,65.21,163.86,52.86,55.7-10.84,97.33-42.89,122-94.43,24.88-52,23.37-104.47-4.48-154.68-28.54-51.47-73.57-80.8-132-88-46.11-5.68-88.53,5.54-125.7,33.7C55.45,100.39,33.08,146.27,31.54,201.31Z"></path></svg>