<svg id="Layer_1" data-name="Layer 1" xmlns="http://www.w3.org/2000/svg" viewBox="0 0 342.2 339.61"><path d="M53.1,283.89c0-1.38.06-2.76,0-4.13-.32-6.9-2.26-8.74-9.24-8.75-10,0-18.13-6.45-19.28-16.3-.46-3.85.63-8.17,2-11.89,2.35-6.18.92-9.91-5.45-11.59-15.1-4-20-20.58-9.52-32.06,4.48-4.9,3.94-9.19-1.59-12.65-13.35-8.37-13.42-25-.14-33.5,5-3.21,5.75-6.13,2.8-11.31-1.11-2-2.41-3.79-3.61-5.7a18.22,18.22,0,0,1,9.21-26.94c1.16-.43,2.41-.64,3.61-1,5.31-1.51,6.84-5.55,5-10.82-1.4-4-2.79-8.5-2.33-12.57,1.1-9.84,9.35-16.29,19.3-16.25.63,0,1.25,0,1.88,0,5.24-.1,8.49-3.79,7.23-8.93A19.17,19.17,0,0,1,78.53,37c5.77,2.13,9.36-.31,10.33-6.47,1.65-10.54,7.49-16.75,17.11-18a18.8,18.8,0,0,1,13.11,3.41c5.92,4,9.88,2.77,12.68-3.72,6-13.94,22.84-16.42,32.7-4.81,4.6,5.43,8.66,5.45,13.3.09,10-11.53,26.61-9.07,32.75,4.83,2.86,6.47,6.78,7.57,12.72,3.57,12.45-8.39,27.72-1.57,30,13.38,1.19,7.91,4.09,9.71,11.83,7.34a19,19,0,0,1,24.43,21.73c-1.25,7.23,1.31,10.2,8.75,10.13,15.17-.15,24.3,14.21,17.72,27.9-3.1,6.43-1.4,10.11,5.5,12C336,112.17,341,128.81,330.86,140c-4.94,5.48-4.38,9.29,2,13.28,12.42,7.8,12.5,24.81.15,32.77-6.07,3.9-6.65,6.42-2.89,12.62a38.17,38.17,0,0,0,2.64,4.1c9.37,11.78-.94,26.2-10.95,28.29-.49.1-1,.16-1.47.29-5.35,1.5-7.38,5.74-4.87,10.73,2.09,4.14,3.3,8.38,2.47,13-1.71,9.57-9.54,16-19.35,15.92-8.05,0-10.25,2.51-9,10.5a19.16,19.16,0,0,1-24.36,21.37c-7.5-2.13-9.83-.86-12.07,6.61-.68,2.27-1.37,4.54-2,6.83-2.25,8.36-14,13.6-21.62,9.82-2.79-1.38-5.66-2.64-8.57-3.75-5.2-2-7.62-.72-10.26,4.25-1.55,2.92-3.35,6-5.79,8.11-7.92,6.9-19.43,5.82-26.56-2.07-5.28-5.85-7.79-6-13.79-1a28.9,28.9,0,0,0-3.08,2.75c-9.29,10.38-25.82,3.42-29.43-6.49-.17-.47-.38-.92-.58-1.38-2.36-5.56-6.68-6.92-11.7-3.49-4.65,3.17-9.58,4.68-15.21,3.61a18.9,18.9,0,0,1-15.32-15.49c-1.49-8.65-2.88-9.69-11.7-8.72a14.77,14.77,0,0,0-2.23.25C62.37,306.35,51.5,296.71,53.1,283.89Zm244-203.42c-10.19.19-18.13-6-19.79-15.72a28.72,28.72,0,0,1,.34-8.15c.68-5.42-1.76-8.53-7.21-8.47a31.78,31.78,0,0,0-7.77,1c-6.14,1.63-11-.43-15.32-4.63a18.81,18.81,0,0,1-5.82-12.23c-.59-6.81-4.44-9.19-10.84-6.75a33.94,33.94,0,0,0-5.74,2.73c-7.35,4.57-17.77,1.77-22.11-5.91a64.85,64.85,0,0,0-3.88-6c-4.07-5.69-7.75-5.88-12.39-.71-9.53,10.63-21.9,10.46-31.17-.43-4.11-4.82-10.54-4.21-12.52,1.69a19.52,19.52,0,0,1-30.73,8.82c-3.21-2.55-7.2-2.1-9.35.93a13.86,13.86,0,0,0-2,6.22A18.18,18.18,0,0,1,79.37,49.05c-1.84-.31-3.68-.73-5.54-.88-7.42-.59-10.23,2.52-8.89,9.77A18.88,18.88,0,0,1,51.46,79.67c-2.48.68-5.18.61-7.78.79-5.76.39-7.89,2.9-6.86,8.58a65.27,65.27,0,0,0,2.3,8.68,15.88,15.88,0,0,1-9,19.48,66.07,66.07,0,0,0-9,4.52c-3.48,2.14-4,4.77-2,8.32a21.72,21.72,0,0,0,2.49,3.27c8.12,9.55,6,22.87-4.6,29.44-7,4.32-7,9.69.09,14C27.88,183.3,29.86,197,21.37,206.4c-5.61,6.19-4.05,11.3,4.15,13.56A19.11,19.11,0,0,1,38.11,246.4a32,32,0,0,0-1.43,3.44c-1.41,4.64-.08,7.19,4.65,8.41a61.58,61.58,0,0,0,8.85,1.54c8.72.93,15,8.16,14.53,16.52a55.89,55.89,0,0,0,.12,7.87c.55,6.57,3.44,8.55,9.82,6.91.72-.18,1.42-.46,2.14-.65a18.8,18.8,0,0,1,22.45,11,31.05,31.05,0,0,1,1.55,6.89c.91,5.65,5.14,8.16,10.37,5.92,1.83-.78,3.42-2.13,5.27-2.85,2.39-.93,4.91-2.09,7.39-2.12,9.08-.1,15.2,4.37,18.9,12.72a10.59,10.59,0,0,0,5.35,5.08c3.27,1.25,5.77-.93,7.91-3.56,8.07-9.93,21.52-10.09,30-.48.49.56.94,1.17,1.48,1.69,3.93,3.85,7.34,3.73,10.68-.62a102.44,102.44,0,0,0,5.91-8.66c3.33-5.38,12.24-8,18-5.4,2.73,1.24,5.47,2.45,8.24,3.58,7,2.84,10.33.85,11.33-6.68,1.69-12.64,13.09-19.95,25.22-16.17,7.77,2.43,12-1.27,10.55-9.21a19.09,19.09,0,0,1,15.18-22.31,45.48,45.48,0,0,1,6-.29c5.77-.32,7.95-2.86,6.95-8.5a68.13,68.13,0,0,0-2.45-9.41c-2.26-6.82,1.58-15.5,8.42-18.44,2.63-1.13,5.24-2.34,7.78-3.68,5.95-3.14,6.62-6.79,2.29-11.95-9.21-11-7.34-23.3,4.69-30.81,5.63-3.51,5.83-9.77,0-12.82-12.25-6.41-13.9-22.71-4.32-31.37,2.59-2.34,3.44-5.64,1.29-8.44a12.81,12.81,0,0,0-6.37-4c-11-3.17-16.59-13.21-13-24,.54-1.66,1.18-3.31,1.56-5C306.89,83.57,304.23,80.34,297.08,80.47Z"></path><path d="M291.16,169.61c-.33,63.42-43.77,119.82-120,119.79-76.84,0-120-56.94-120-119.75.05-63.21,43.71-119.71,120.13-119.6S290.75,106.6,291.16,169.61Zm-12,.1c-.31-56.62-39-107.65-108-107.69S63.23,113,63.15,169.54,102,277.5,171.22,277.43C240.71,277.35,278.89,225.79,279.16,169.71Z"></path><path d="M159.81,135.66c-.43,10.62-3.05,20.73-10.88,28.84a24.68,24.68,0,0,1-35.55-.25C99.64,149.7,100.23,121,114.57,107A25,25,0,0,1,151,108.87C157.3,116.55,159.49,125.65,159.81,135.66Zm-13.12,0c-1.34-5.44-2.26-10.6-3.92-15.51s-5.46-7.35-10.58-7.52a11.24,11.24,0,0,0-11.35,7A38.67,38.67,0,0,0,120.4,152a11.27,11.27,0,0,0,11.17,7.33c5.29,0,9.31-2.53,11-7.47C144.37,146.6,145.35,141.08,146.69,135.69Z"></path><path d="M238.7,202.87c0,8.67-1.85,16.86-6.64,24.2-10.86,16.65-33.25,16.67-43.36-.4-9.16-15.47-9-31.63.54-46.87,11.06-17.64,35.31-16.1,44.89,2.42C237,187.81,238.68,195.33,238.7,202.87Zm-12.85.47c-1.31-5.39-2.18-10.56-3.85-15.46s-5.54-7.59-10.85-7.75a11.35,11.35,0,0,0-11.38,7,38.61,38.61,0,0,0-.44,32.3c2.1,4.95,6.09,7.49,11.52,7.37,5.28-.12,9.25-2.73,10.94-7.63C223.56,214.05,224.53,208.64,225.85,203.34Z"></path><path d="M219.06,108.79a56.32,56.32,0,0,1-3,5.82q-40.26,58.94-80.6,117.81c-3,4.34-6.52,5.31-10.12,2.94s-4.07-5.92-1-10.38q40.44-59,80.91-118c2.54-3.7,5.52-5.25,8.43-3.61C215.84,104.53,217.3,106.92,219.06,108.79Z"></path></svg>