<svg id="Layer_1" data-name="Layer 1" xmlns="http://www.w3.org/2000/svg" viewBox="0 0 512 512"><path d="M512,459v5c-2,2.58-3.68,5.53-6.08,7.67-4.83,4.33-9.91,8.41-15.13,12.27a74.41,74.41,0,0,1-46.6,15.1c-13.85-.23-26.3-4.94-38.6-10.74-18-8.5-36.43-11.66-55.26-2.32-6.41,3.17-12.78,6.42-19.17,9.65-19,9.58-38.82,12-59,5.1-11-3.75-21.42-9.1-31.86-14.23Q216.86,475,193,484.82c-10,4.12-19.63,9-29.55,13.34-11.77,5.09-24.11,6-36.72,4.34-13.57-1.77-25.89-7.19-38.14-12.85-13.47-6.22-27-5.92-40.72-.55C34.59,494.3,24.17,503.69,13,512H0V500c3.64-7.83,11.05-11.82,17.47-16.67,13.78-10.42,29-18.15,46.63-18.16,10.15,0,20.3,1.92,30.43,3-.25-.85-.67-2.42-1.14-4q-24.51-82.49-49-165c-2.57-8.67-1.36-11.8,6.44-16.54,13.8-8.38,27.57-16.81,41.46-25C95,256,96.1,254.26,96.08,251c-.15-26-.09-52-.07-78,0-9.49,3.5-12.95,13-13,5.59,0,11.18,0,17,0V134.33c0-11.23,3.06-14.31,14.2-14.32h27.3c0-9.38-.06-18.18,0-27,.08-9.49,3.59-13,13-13,13.32,0,26.65,0,40,0H226c0-22.68.12-44.65-.07-66.62C225.87,7,227.85,2.38,234,0h44c6.15,2.38,8.13,7,8.07,13.39-.19,20.33-.07,40.66-.07,61V80h44.54c10.72,0,13.93,3.22,14,14,0,8.46,0,16.92,0,25.94h20.35c20.67,0,21.14.47,21.14,20.88V160c5.95,0,11.25,0,16.56,0,10.12,0,13.43,3.36,13.44,13.57,0,25.5.08,51-.09,76.49,0,3.75,1,5.94,4.33,7.91,13.66,8,27.12,16.28,40.64,24.48,8.38,5.07,9.37,7.75,6.52,17.32q-23.61,79.4-47.22,158.79c-1.21,4.09-2.32,8.22-3.5,12.4,17.52,8.78,35.09,11.88,52.64,2.74,8.3-4.32,15.64-10.66,23-16.63C500.86,450.1,505.57,450.31,512,459ZM266,187.78V472c0,.67-.22,1.45.05,2,.66,1.31,1.31,3.32,2.38,3.62,8.43,2.37,16.84,5.22,25.47,6.36,13,1.71,24.44-3.71,35.45-9.88,21.46-12,44-17.8,68.83-11.47,16.39-55.18,32.67-109.95,49-165ZM64.92,297.48c.29,1.17.45,2,.68,2.75q9.23,31.11,18.44,62.2,17,57.4,34,114.83c1,3.35,2.61,5.33,6,5.38,7.27.1,15,1.51,21.71-.41,10.44-3,20.43-7.8,30.21-12.67,12.64-6.28,25.76-10.45,39.84-9.37,10,.76,19.91,3.21,29.79,4.9V188ZM365.76,140.35H146.4v19.42H365.76Zm-146.16,40H116.33V243Zm74.3-.12-.32.85L395.74,243V180.25Zm30.43-79.85H187.82v19.24H324.33ZM265.79,20.28h-19.5V79.66h19.5Z"></path><path d="M406.28,303.72a9.51,9.51,0,0,1-12.56,9.4,20.26,20.26,0,0,1-4.49-2.12Q359,292.43,328.85,273.77a18.1,18.1,0,0,1-4.58-3.8c-2.92-3.65-3.12-7.76-.44-11.56s6.36-5.28,10.93-3.83a18.44,18.44,0,0,1,4.06,1.87q30.63,18.84,61.23,37.74C403.6,296.39,406.36,299.13,406.28,303.72Z"></path><path d="M307.74,243.26a10,10,0,0,1-9.63,9.62A10.45,10.45,0,0,1,288,243.16c-.1-5.21,4.51-10.07,9.64-10.16C303,232.89,307.77,237.72,307.74,243.26Z"></path><path d="M110.21,303.91c2.72-3.48,4.32-7,7.06-8.79,20.54-13.28,41.28-26.27,62-39.23,5.77-3.61,11.95-2.43,15,2.42s1.44,10.73-4.44,14.47c-20.5,13-41.09,25.94-61.63,38.92-3.84,2.43-8,3.27-11.67.47C114.14,310.35,112.7,307.28,110.21,303.91Z"></path><path d="M220.08,232.17c4.95.14,9.82,5.39,9.62,10.36a10.25,10.25,0,0,1-10.35,9.5,9.94,9.94,0,0,1,.73-19.86Z"></path></svg>