<svg id="Layer_1" class="icon" data-name="Layer 1" xmlns="http://www.w3.org/2000/svg" viewBox="0 0 384 331.5">
  <path d="M0,114.7c3-6.4,8.1-8.6,15.1-8.3,10.6.4,21.3,0,31.9.2a7,7,0,0,0,6.2-3c27.7-34.7,55.4-63.3,83.1-97.9,2.4-3.1,5.2-5.5,9.3-5.6a10.6,10.6,0,0,1,10.5,5.8c2.4,4.5,1.8,8.8-1.3,12.6L133,45.8C116,67,99,82.3,82,103.6a28.9,28.9,0,0,0-1.9,2.7H304l-2.5-3.3c-23.8-29.9-47.7-53.7-71.6-83.6C224,12,226.5,2.5,235.1.4c5.1-1.3,9,.7,12.1,4.7,18.9,23.6,37.8,41.2,56.7,64.8,9.1,11.4,18.3,22.8,27.3,34.3a5.7,5.7,0,0,0,5.1,2.3c10.9-.1,21.7.3,32.6-.1,7-.2,12.1,1.8,15.1,8.3v51.1c-3,6.5-8.1,8.9-15.1,8.3-3.3-.3-6.7-.1-10.1-.1-.4,1.5-.8,2.7-1.1,3.8L316.6,321.4c-2.1,7.5-5.6,10.1-13.2,10.1H80.6c-7.6,0-11-2.6-13.2-10Q50.1,261.2,33,200.9L25.2,174c-3.6,0-6.9-.2-10.1.1-7,.6-12.1-1.9-15.1-8.3Zm335.3,59.5H48.7L87.2,308.9H296.8C309.6,264,322.4,219.3,335.3,174.2Zm26-44.9H22.8v22H361.3Z"></path><path d="M141.3,274.6a11.3,11.3,0,0,1-9.7,11.8,10.9,10.9,0,0,1-12.4-8.9c-2.6-14.6-5-29.3-7.4-43.9-1.2-6.9-2.5-13.8-3.4-20.7a26,26,0,0,1,0-8.8c1.2-4.7,6.1-7.8,10.9-7.6a11.1,11.1,0,0,1,10.5,9c2.1,11.3,3.9,22.7,5.8,34s3.5,20.9,5.2,31.3C141,272.1,141.1,273.3,141.3,274.6Z"></path><path d="M243.5,273.9c1.6-9.7,3.3-20.3,5.1-30.9l5.7-34c.1-.9.3-1.9.5-2.9,1.4-6.4,6.7-10.4,12.7-9.5s10.3,6.4,9.3,13.1c-1.4,10-3.2,20-4.8,30-1.9,11.7-3.9,23.3-5.8,35-1.3,8-6.2,12.5-12.8,11.7S243.3,280.7,243.5,273.9Z"></path><path d="M203.2,241.5c0,10.8.1,21.7,0,32.6,0,7.3-4.6,12.3-11.1,12.4s-11.3-5.1-11.3-12.6q-.2-32.4,0-64.8c0-7.5,4.6-12.6,11.3-12.6s11.1,5.2,11.1,12.8C203.3,220,203.2,230.8,203.2,241.5Z"></path>
</svg>