<svg id="Layer_1" data-name="Layer 1" xmlns="http://www.w3.org/2000/svg" viewBox="0 0 381.03 408.79"><path d="M11.64,408.79C2.35,405.36-.29,398.46,0,389,.79,366.2,4.15,344,13,322.85c14.19-34.11,38.93-57.82,72.27-73,24-10.93,49.46-16,75.57-18.24a338.69,338.69,0,0,1,73.27,1.47c31.34,4.12,61.09,12.88,87.28,31.36,29.94,21.14,47.78,50.25,55,85.8,2.58,12.7,3,25.83,4.49,38.76,1.07,9.45-2.2,16.36-11.49,19.79Zm338.18-30c.22-.45.45-.69.43-.91-.28-3.18-.47-6.37-.9-9.52C346.76,349.14,341,331,330,314.92c-15.38-22.47-37.17-36-62.63-44.25-24.67-8-50.13-10.44-75.91-10.5-27.12-.06-53.9,2.48-79.79,11.16-18,6-34.32,15-47.92,28.42-16.62,16.43-26.14,36.59-30.46,59.34-1.22,6.43-2,13-3,19.7Z"></path><path d="M289.46,104.15c-1.19,32.82-14.2,62.3-42.15,84.62-29.73,23.75-74.63,26.34-106.07,5.08C102.5,167.65,87.4,130.36,93,84.6c3.36-27.41,16.6-49.71,39.05-66C153.63,2.9,178-2.44,204.24,1c28.35,3.72,51.08,17.31,67.44,40.9C284.12,59.84,289.35,80.06,289.46,104.15ZM121.37,98.76c.27,22.29,6.42,40.35,19.45,56.05,24.43,29.45,68.14,31.71,95,4.53,19.46-19.71,26.81-43.75,22.62-70.89-8-51.75-62-71.9-102.28-49.91C131.88,51.76,122.15,74,121.37,98.76Z"></path></svg>