<svg id="Layer_1" data-name="Layer 1" xmlns="http://www.w3.org/2000/svg" viewBox="0 0 979.95 860.22"><path d="M551.17,122.5c31.2-24.5,106.9-89.1,229.4-33.4C907.57,147,918.67,294,912,340.7c-22.3,202.7-423.2,447.6-423.2,447.6-358.5-236-414.2-383-423.1-445.3-6.7-62.4,6.7-204.9,131.4-251.7s198.2,8.9,229.4,33.4c11.1,8.9,24.5,20,33.4,31.2,13.4,15.6,37.9,15.6,53.5,0C526.67,144.8,537.87,131.4,551.17,122.5Zm-80.1,732.7a34,34,0,0,0,35.6,0c62.4-40.1,276.2-180.4,392-336.3,135.8-184.8,71.2-331.8,22.2-398.6S794,0,676,0c-100.2,2.2-162.6,53.5-180.4,69-4.5,4.5-8.9,4.5-11.1,2.2-17.8-15.6-82.4-66.8-180.4-69-118-2.2-196,53.5-245,120.3s-113.6,213.8,22.2,398.6C194.87,677,408.67,817.3,471.07,855.2Z"></path></svg>