<svg id="Layer_1" data-name="Layer 1" xmlns="http://www.w3.org/2000/svg" viewBox="0 0 512 512"><path d="M480,512H32c-7.57-2.55-9.92-8.06-9.91-15.71q.18-122.42.07-244.84v-6.79C13.36,244.49,4.1,246.35,0,236V142c2.7-6.89,8.07-8.87,15-8.86q72.66.15,145.32.05h4.31c-11.25-8.45-23.21-16.1-33.61-25.49-32.5-29.29-23.5-84,16.5-101.6C154.3,3.13,161.83,2,169,0h10a17.19,17.19,0,0,0,2.82.85c16.07,1.92,29.31,9.06,40.12,21.09,13.88,15.46,23.48,33.38,31.11,52.51.81,2,1.71,4,3,7.1,1.34-3.33,2.07-5.52,3.08-7.57,5.36-10.87,10.14-22.1,16.35-32.45,8.08-13.46,17.43-26.39,32.08-33.39,8-3.8,16.92-5.5,25.43-8.14h10a25.14,25.14,0,0,0,3.32.9c47.22,6.17,70.37,59.84,42.26,98.3-9.52,13-22.75,21.76-36.47,29.76-1.89,1.1-3.8,2.16-5.7,3.24l.37,1h5.36q72.42,0,144.82-.05c7,0,12.34,2,15,8.86v94c-4.07,10.41-13.42,8.34-22.16,8.81v6.64q0,122.42.07,244.84C489.92,504,487.57,509.45,480,512ZM44.89,244.91V489h155V244.91ZM467.11,489.1V245h-155V489.1ZM223,244.9V489h66V244.9Zm-23-89H22.53v65.92H200ZM489.56,222V155.92H312.07V222ZM244.65,133.53a41.37,41.37,0,0,0,0-4.29c-3.1-25.27-11.46-48.83-23.91-70.9C214.75,47.77,208,37.49,198,30.13,185.61,21,171.86,19.37,157.9,25.5,143.76,31.7,135.56,43,134,58.58c-1.63,16.32,5.73,28.59,18.07,38.35,22.39,17.69,48.17,27.93,75.77,34C233.27,132.13,238.86,132.65,244.65,133.53Zm21.59-.16c4.4-.41,7.28-.33,10-1,11.91-3,24-5.51,35.59-9.47,19.64-6.73,38.06-16.08,53.24-30.6,12.73-12.19,16.72-27.22,10.66-43.79C370,32.8,358,23.79,341.2,22.28c-16.08-1.45-28.17,6.09-37.82,18.26-15.23,19.22-24.89,41.2-31.23,64.68C269.75,114.13,268.32,123.3,266.24,133.37Zm22.82,22.52H223v66h66Z"></path></svg>