<svg version="1.1" id="Capa_1" xmlns="http://www.w3.org/2000/svg" xmlns:xlink="http://www.w3.org/1999/xlink" x="0px" y="0px" viewBox="0 0 511.4 512" style="enable-background:new 0 0 511.4 512;" xml:space="preserve">
<style type="text/css">
	.st0{stroke:#000000;stroke-width:0.2;stroke-miterlimit:10;}
</style>
<path d="M123.1,221c-16.5,0-29.9,13.4-29.9,29.9s13.4,29.9,29.9,29.9s29.9-13.4,29.9-29.9c0,0,0,0,0,0
	C152.9,234.4,139.6,221.1,123.1,221z M123.1,263.7c-7.1,0-12.8-5.7-12.8-12.8c0-7.1,5.7-12.8,12.8-12.8c7.1,0,12.8,5.7,12.8,12.8
	l0,0C135.9,258,130.1,263.7,123.1,263.7z"></path>
<path class="st0" d="M511.4,280.8c0-12.6-4.7-24.7-13.1-34.1c0.8-10-0.9-20-5-29.1c-1.9-4.3-7-6.2-11.3-4.3s-6.2,7-4.3,11.3
	c1.3,3,2.3,6.1,2.9,9.4c-6.4-2.8-13.4-4.3-20.5-4.3c-0.5,0.1-1,0.1-1.4,0.3c-1-0.1-1.9-0.3-2.8-0.3c-2.1,0-4.1,0.2-6.1,0.6
	c-16-38-43.6-68.9-80.5-90.1c18.5-55.9-11.8-116.2-67.7-134.7S185.4,17.2,166.9,73.1c-3.6,10.8-5.4,22.2-5.4,33.6
	c0,7.9,0.9,15.8,2.6,23.5c-7.6,2.5-14.4,4.9-19.7,7c-37.4-14.9-61.8-20.1-83.6-17.7c-5.1,0.5-9.3,4.4-10.1,9.5
	c-0.9,5.2,1.7,10.3,6.5,12.5c11.6,5.6,16.5,19.1,21.7,33.4c1.3,3.6,2.7,7.3,4.1,10.9c-22.3,23-26.3,41.7-30.3,69.3H41.9
	c-26.7,0-41.9,19-41.9,52V338c0,33.6,15.7,53.7,41.9,53.7h5.3c6.4,15.9,15.6,30.5,27.2,43.2l-11.8,29.4c-7.1,17.8,1.5,38,19.3,45.1
	c4.1,1.6,8.5,2.5,12.9,2.5h57.5c7.2,0,13.8-4.4,16.4-11.1l3.1-7.8c27.2,8,57.5,12.3,89.8,12.3c24.8,0.1,49.6-3.1,73.5-9.6v0.1
	c2.9,9.6,11.7,16.2,21.8,16.1h51.3c20.6,0,37.2-16.7,37.2-37.2c0-4.2-0.7-8.4-2.1-12.4l-10-28.3c22.6-27.9,35.4-62.7,35.4-102.1
	c0-0.2,0-0.5,0-0.8C493.3,327,511.4,305.7,511.4,280.8z M459.1,289l-1.5,0.1c-0.5,0-1,0.1-1.7,0.2c-11.7,0.1-21.2-9.3-21.3-21
	c0-1.4,0.1-2.8,0.4-4.2c0.1-0.4,0.2-0.7,0.2-1.1c0.2-0.9,0.5-1.9,0.9-2.8c0.1-0.3,0.2-0.6,0.4-0.9c1-2.3,2.4-4.3,4.1-6.1
	c0.3-0.3,0.6-0.6,1-0.9c0.6-0.5,1.1-1,1.7-1.4c0.5-0.3,0.9-0.7,1.4-1s1-0.6,1.5-0.8s1.2-0.6,1.8-0.9h0.1c2.5-1,5.2-1.5,7.8-1.5
	c11.8,0,21.3,9.6,21.3,21.3C477.2,278.5,469.5,287.4,459.1,289z M268.1,17.1c49.4-0.1,89.5,40,89.6,89.4c0,10.6-1.8,21.1-5.5,31
	l-1.3,3.2c-4.2,10.2-10.3,19.6-17.9,27.6c-1.1-0.5-2.2-0.8-3.2-1.3c-2.5-1.1-5-2.1-7.6-3c-2.2-0.8-4.4-1.6-6.6-2.3
	c-2.4-0.7-4.9-1.3-7.3-1.9c-4.4-1.1-8.9-1.9-13.4-2.6c-2.1-0.3-4.3-0.7-6.4-0.9c-2.7-0.2-5.3-0.3-8-0.4c-2.2-0.1-4.4-0.1-6.5-0.1
	c-2.6,0-5.1,0.2-7.7,0.4s-4.8,0.4-7.2,0.8s-4.6,0.6-6.9,1c-3.3,0.6-6.5,1.4-9.7,2.2c-1.4,0.4-2.8,0.6-4.2,1c-4.7,1.4-9.3,3-13.9,4.9
	c-1,0.4-2.1,1-3.1,1.4c-3.6,1.6-7.2,3.4-10.8,5.4c-0.5,0.3-1,0.5-1.5,0.8c-2.8-2.5-5.5-5.2-8-8.1c-0.3-0.4-0.6-0.8-1-1.2
	c-2.2-2.6-4.3-5.3-6.2-8.2c-0.1-0.2-0.3-0.4-0.4-0.7c-4.3-6.5-7.7-13.6-10.1-21l-0.9-2.9c-14-47.3,12.9-97,60.2-111
	C250.8,18.3,259.4,17,268.1,17.1L268.1,17.1z M152.3,494.9H94.8c-9.7,0-17.7-7.9-17.7-17.6c0-2.2,0.4-4.5,1.3-6.6l9-22.6
	c18.5,16.5,41.5,29.9,68,39.5L152.3,494.9z M424.7,486.4c-3.8,5.4-9.9,8.5-16.5,8.5H357c-2.5,0-4.7-1.6-5.4-4l-0.1-0.4
	c27-9.8,50.4-24.1,68.9-42.1l7,19.7C429.5,474.3,428.5,481.1,424.7,486.4z M410.7,433.6l-0.2,0.2c-3.5,3.5-7.1,6.8-11,10
	c-0.9,0.8-1.9,1.5-2.9,2.3c-2.8,2.3-5.8,4.4-8.8,6.5c-1.3,0.9-2.6,1.8-4,2.7c-3.9,2.5-7.8,4.9-12,7.2c-1.4,0.8-2.9,1.4-4.3,2.2
	c-3.1,1.6-6.3,3.1-9.5,4.5c-1.8,0.8-3.5,1.5-5.3,2.3c-3.9,1.6-7.8,3-11.9,4.4c-0.9,0.3-1.8,0.7-2.6,1l-0.4,0.1
	c-22.9,7.3-48.5,11.3-76.2,11.3c-35.1,0-68-5.7-96.8-15.9c-1.7-0.6-3.4-1.2-5.1-1.8c-48.7-18.5-84.8-50.3-98.6-90.2l-2-5.8H41.9
	c-20.6,0-24.9-19.9-24.9-36.7v-30.8c0-35,18.7-35,24.9-35h25.6l1-7.4c4.5-32,6.7-48,30.6-71l4.4-4.2l-2.6-5.5c-2.2-4.6-4-9.6-6-15
	c-4.1-11.2-8.6-23.5-17-32.8c16.3,1.2,35.9,6.9,63.2,18l3.3,1.3l3.2-1.4c5.2-2.2,12.9-4.9,21.6-7.8c1.7,4.2,3.7,8.3,5.9,12.2
	c0.2,0.3,0.3,0.6,0.5,0.9c2,3.5,4.2,6.9,6.6,10.1c0.4,0.6,0.8,1.2,1.3,1.8c2.3,2.9,4.7,5.7,7.3,8.4c0.6,0.7,1.2,1.4,1.9,2
	s1.1,1.1,1.6,1.6c-4.7,3.6-9.2,7.4-13.4,11.5c-3.3,3.3-3.3,8.7,0,12.1c3.3,3.3,8.7,3.3,12.1,0c5.5-5.5,11.5-10.4,17.9-14.6l1.4-0.9
	c2.6-1.7,5.3-3.2,8-4.7c1.1-0.6,2.2-1.1,3.3-1.7c2.2-1.1,4.3-2.1,6.5-3c0.9-0.4,1.7-0.8,2.6-1.1c3.1-1.2,6.2-2.3,9.4-3.3
	c0.5-0.2,1.1-0.3,1.6-0.4c3.1-0.9,6.2-1.6,9.4-2.3l0.9-0.2c22.2-4.2,45.1-2,66,6.4l0.6,0.2c14.4,5.9,27.5,14.6,38.5,25.6
	c3.3,3.3,8.7,3.3,12.1,0c3.3-3.3,3.3-8.7,0-12.1c-6.9-6.9-14.6-13-22.9-18.3c0.7-0.8,1.3-1.7,1.9-2.5c1.2-1.4,2.3-2.8,3.4-4.3
	s2.1-2.9,3.1-4.4c0.8-1.2,1.6-2.5,2.4-3.7c1-1.6,2-3.3,2.9-5c0.2-0.4,0.4-0.7,0.6-1.1c32.7,19.2,57.2,46.8,71.5,80.6
	c-1.7,1.2-3.4,2.6-4.9,4.1c-0.3,0.3-0.5,0.5-0.8,0.8c-3.2,3.3-5.8,7.1-7.6,11.3c-0.1,0.2-0.2,0.5-0.3,0.7c-0.8,2.1-1.5,4.2-2,6.4
	c-0.1,0.4-0.1,0.8-0.2,1.2c-0.4,2.3-0.7,4.6-0.7,7c0,2.5,0.3,5,0.8,7.4c0.2,0.8,0.5,1.6,0.7,2.3c0.4,1.6,0.9,3.1,1.4,4.6
	c0.4,0.9,0.8,1.7,1.2,2.6c0.6,1.3,1.3,2.5,2,3.7c0.5,0.9,1.2,1.6,1.8,2.4c0.8,1.1,1.7,2.1,2.6,3.1c0.7,0.7,1.5,1.4,2.2,2.1
	c1,0.9,2,1.8,3.1,2.6c0.8,0.6,1.7,1.2,2.6,1.7c1.1,0.7,2.3,1.3,3.5,1.9c0.9,0.5,1.9,0.9,2.9,1.2c1.3,0.5,2.6,0.9,4,1.2
	c1,0.3,2,0.5,3,0.7c0.4,0.1,0.8,0.2,1.2,0.3c0.8,8.6,1.1,17.3,1.1,26C451.7,372.1,436.8,407,410.7,433.6z M468.2,313.9
	c-0.2-3.2-0.5-6.3-0.8-9.4c13.7-4.3,23.8-15.9,26.3-30.1c0.4,2.1,0.6,4.3,0.6,6.4C494.3,296.5,483.5,310.2,468.2,313.9L468.2,313.9z
	"></path>
<path d="M224.4,159.5c3.7,2.9,9.1,2.2,12-1.6c2.9-3.7,2.2-9.1-1.5-11.9c-23.8-18.4-28.2-52.6-9.9-76.4s52.6-28.2,76.4-9.9
	c23.8,18.4,28.2,52.6,9.9,76.4c-1.9,2.4-3.9,4.7-6.2,6.8c-3.5,3.2-3.7,8.6-0.4,12.1c3.2,3.5,8.6,3.7,12.1,0.4
	c29-26.8,30.8-72.1,4-101.1s-72.1-30.8-101.1-4s-30.8,72.1-4,101.1C218.3,154.4,221.3,157.1,224.4,159.5L224.4,159.5z"></path>
<path d="M271.7,452.3c-38.8,3.4-70.9-1.8-104.3-16.5c-4.3-1.9-9.3,0-11.3,4.4c-1.9,4.3,0,9.3,4.4,11.3l0,0
	c28.2,12.7,58.8,19.2,89.7,19c7.5,0,15.2-0.3,23-1c4.7-0.4,8.2-4.5,7.8-9.2C280.5,455.4,276.4,451.9,271.7,452.3L271.7,452.3z"></path>
</svg>