<svg id="Layer_1" data-name="Layer 1" xmlns="http://www.w3.org/2000/svg" viewBox="0 0 482.24 512"><path d="M236.15,512c-8.94-2.14-17.36-5.16-24.55-11.33-13.31-11.41-18.68-30.43-13.12-48.2,5.15-16.44,20.7-29.72,37.76-30.38,15.91-.62,32-.92,47.77,1C298.78,425,309,435,315,448.69c1.55,3.59,3.4,3.7,6.47,3,35.93-8.49,57.35-31.24,65.56-66.84,1.37-5.95,2-12.06,3.06-18.74-6,0-11.3,0-16.59,0C364.37,366,359,360.91,359,352q-.09-71.74,0-143.48c0-8.51,5.06-13.67,13.58-14,5.65-.22,11.31,0,18.13,0-.58-13.64-.39-27-1.87-40.11-3.54-31.6-15.45-59.82-36.95-83.53-21.2-23.39-47.45-38.07-78.73-42.73C247.13,24.21,221,24,195.31,31,159.88,40.67,133,61.78,114,93,98.59,118.47,92.11,146.4,92.07,176c0,6,0,11.91,0,18.46,5.62,0,10.74-.05,15.85,0,10.38.12,15.4,5,15.41,15.25q0,70.74,0,141.48c0,10-5.07,14.95-15.08,15-12.33,0-24.66.14-37,0C33,365.6,3.53,338.51.74,300.41a256.41,256.41,0,0,1,.33-42.93c3.19-33.43,29.09-58.7,62.64-62.51.64-.07,1.26-.24,3.18-.62,0-11.17-.82-22.52.14-33.72C72.18,100.12,99.15,52.51,152,21.1,172.43,9,195,2.59,218.76.77A44.33,44.33,0,0,0,223.15,0h37A16.31,16.31,0,0,0,263,.72,156.67,156.67,0,0,1,324.58,18c44.84,23.48,72.34,60.67,85.58,109,5.52,20.12,6.51,40.72,6.11,61.45,0,2.08,0,4.16,0,6.08,1.34.27,1.82.41,2.31.47,33.64,3.67,59.23,28.63,62.7,62.38,1.35,13,1,26.31.61,39.45-.79,24.85-11.7,44.38-32.48,58.19-10,6.69-21.33,10-33.46,11.15-.6,4.84-1.14,9.44-1.74,14-6.87,52.1-41.45,88.35-93.19,98a7.45,7.45,0,0,0-4.73,4c-4.06,10.34-10.61,18.59-20.35,23.78-5.21,2.77-11.16,4.13-16.78,6.13ZM97.56,339.46V220.91c-11,0-21.6-.57-32.16.12-19.23,1.26-36.92,18.88-38.27,38-.83,11.94-1.06,24-.73,35.93.65,23,15.17,41.13,36.5,44.17C74.13,340.78,85.77,339.46,97.56,339.46Zm287.66-120V340.1c9.58,0,18.88.41,28.13-.08,24.43-1.3,42-19.47,42.78-44q.47-15.7,0-31.45c-.61-20.79-12.78-37.54-33.05-42.22C411,219.56,398.12,220.28,385.22,219.41ZM257.43,486c5.83,0,11.66.22,17.48,0a19.21,19.21,0,0,0,18.17-17.93c.64-9.75-5.85-19.32-15.57-20a268.8,268.8,0,0,0-39.83,0c-10,.75-16.29,10.13-15.61,20.41A19,19,0,0,0,240.46,486C246.11,486.23,251.77,486.05,257.43,486Z"></path></svg>