<svg id="Layer_1" data-name="Layer 1" xmlns="http://www.w3.org/2000/svg" viewBox="0 0 217.13 43.05"><defs><style>.cls-1{fill:#ffb900;}.cls-2{fill:#1c1c1c;}.cls-3{fill:#000c27;}.cls-4{fill:#222;}</style></defs><path class="cls-1" d="M41.83,17.58v-4l-4,.21a14.73,14.73,0,0,0-.59-2.48L40.63,9,38.83,6,35.19,7.47a13.1,13.1,0,0,0-1.65-1.68L35.75,3l-3-1.66L30,3.67A15,15,0,0,0,27.72,3L28.65.22,25.17,0,23.48,2.59A19.14,19.14,0,0,0,21,2.84L20.81.53l-3.43,1L16.75,4a24.23,24.23,0,0,0-2.33,1L13.35,3.37l-3,1.91.31,2.1A23.14,23.14,0,0,0,8.71,9h0L7,8.09,4.68,10.64l1.09,1.54.13.18c.28-.33.57-.66.87-1a22.78,22.78,0,0,1,4.05-3.47,21,21,0,0,1,4.79-2.39,17.9,17.9,0,0,1,5.28-1,13.86,13.86,0,0,1,5.33.84,11.33,11.33,0,0,1,4.48,3,11.12,11.12,0,0,1,2.48,4.82,14.71,14.71,0,0,1,.22,5.41,19.6,19.6,0,0,1-4.47,9.7A22.78,22.78,0,0,1,25,32a21,21,0,0,1-4.68,2.65A19,19,0,0,1,15.14,36a15.23,15.23,0,0,1-5.34-.32A11.64,11.64,0,0,1,5.06,33.2a10.56,10.56,0,0,1-1.78-2l0,0L3,31.49,1.22,33.8,3,36.18l2.31-1.82a12,12,0,0,0,1.74,1.31l-1,2.93L9,40l1.79-2.73a15.63,15.63,0,0,0,2.45.45l.1,3.2h3.9l.77-3.34A19.94,19.94,0,0,0,20.86,37l1.56,3,4.19-1.71L25.9,34.8a25.68,25.68,0,0,0,2.64-1.75l3,2,3.55-3.28-2.32-2.7a24.68,24.68,0,0,0,1.9-2.57l3.94.5,2-4.16-3.53-1.35a19,19,0,0,0,.7-2.84Z" transform="translate(-1.22)"/><path class="cls-2" d="M5.18,33.07a11.35,11.35,0,0,0,4.7,2.26,14.77,14.77,0,0,0,5.22.23,18.78,18.78,0,0,0,5-1.39,22.29,22.29,0,0,0,8.32-6.25,19.06,19.06,0,0,0,4.27-9.41,14,14,0,0,0-.18-5.16,10.46,10.46,0,0,0-2.31-4.56A10.74,10.74,0,0,0,26,5.9,13.88,13.88,0,0,0,20.9,5a17.1,17.1,0,0,0-5.15.9A21.08,21.08,0,0,0,11,8.18,23,23,0,0,0,6.9,11.5c-.32.31-.61.64-.91,1H6l.07.09h0a21.29,21.29,0,0,1,3-2.76l.48-.35h0a19.12,19.12,0,0,1,6.34-3C24,4.4,31,8.93,30.66,17.3c-.4,9-8.9,17.1-17.81,17.51a12,12,0,0,1-6.37-1.35,10.11,10.11,0,0,1-3-2.55l-.14.17.05.07A10.62,10.62,0,0,0,5.18,33.07Z" transform="translate(-1.22)"/><path class="cls-2" d="M13.63,18.36,9.29,13.54s-2.83,3.51.5,9.62L15.48,18Zm-.48,1-3.5-3.9a.53.53,0,0,1-.15-.31l-.11-.63,4,4.48.13,0Z" transform="translate(-1.22)"/><path class="cls-3" d="M21.54,30.77a20.32,20.32,0,0,1-2,1.29l-.27-.73a1.17,1.17,0,1,1,2.21-.79Z" transform="translate(-1.22)"/><path class="cls-2" d="M22.43,11.86c-2.67-4.3-8-2.87-8-2.87l4.11,4.27-1,3.71L9.05,24.61c.46,1.28,4.13.72,5.87,2.73a26.35,26.35,0,0,1,3.25,5.4c.37-.17.73-.35,1.09-.54L19,31.43a1.46,1.46,0,1,1,2.75-1l.05.15q.36-.27.72-.57l-.12-.3c-1-2.87-.69-6.1-.37-9.22s.63-6.1-.56-8-4-2.91-5.55-3a6.16,6.16,0,0,1,5.91,2.76c1.28,2.05,1,5.08.63,8.29s-.64,6.25.35,9l.06.15.58-.52C21.55,23.69,25.08,16.14,22.43,11.86Zm-10,13.43a18.34,18.34,0,0,1-2.29-.67l1.5-1.39,2.46.68Zm5.9,1.06a.42.42,0,0,1-.14.09.34.34,0,0,1-.37-.08l-2.84-2.78a.36.36,0,0,1,0-.51.35.35,0,0,1,.51,0l2.85,2.78A.36.36,0,0,1,18.28,26.35Zm.93-.91a.28.28,0,0,1-.13.09.36.36,0,0,1-.38-.08l-2.84-2.78a.36.36,0,0,1,.51-.52l2.84,2.78A.36.36,0,0,1,19.21,25.44Zm1-.75a.42.42,0,0,1-.14.09.35.35,0,0,1-.37-.09l-2.84-2.77a.37.37,0,0,1,0-.52.36.36,0,0,1,.51,0l2.84,2.78A.35.35,0,0,1,20.23,24.69Zm1.61-9.23a10.8,10.8,0,0,1-.06,1.47l-3.68-.2.35-1.27Z" transform="translate(-1.22)"/><path class="cls-4" d="M58.3,29.4H49.13l-1.47,4.34H41.39L50.28,9.17h6.93L66.1,33.74H59.77Zm-1.54-4.62-3-9-3,9Z" transform="translate(-1.22)"/><path class="cls-4" d="M87.73,14.21V33.74h-6V31.08a6.66,6.66,0,0,1-2.47,2.08,7.61,7.61,0,0,1-3.45.79,7.75,7.75,0,0,1-4-1,6.78,6.78,0,0,1-2.66-2.89,9.81,9.81,0,0,1-1-4.44V14.21h6v10.6a4.29,4.29,0,0,0,1,3.05,4,4,0,0,0,5.49,0,4.29,4.29,0,0,0,1-3.05V14.21Z" transform="translate(-1.22)"/><path class="cls-4" d="M102.57,28.66v5.08h-3a7.44,7.44,0,0,1-5.08-1.6Q92.64,30.55,92.63,27V19.18H90.25v-5h2.38V9.45h6v4.76h3.92v5H98.62V27A1.66,1.66,0,0,0,99,28.28a2.09,2.09,0,0,0,1.4.38Z" transform="translate(-1.22)"/><path class="cls-4" d="M109.28,32.79a9,9,0,0,1-3.61-3.5A10.52,10.52,0,0,1,104.36,24a10.33,10.33,0,0,1,1.33-5.3,9.06,9.06,0,0,1,3.64-3.52,11.61,11.61,0,0,1,10.36,0,9.06,9.06,0,0,1,3.64,3.52,10.33,10.33,0,0,1,1.33,5.3,10.21,10.21,0,0,1-1.35,5.3,9.14,9.14,0,0,1-3.67,3.52,11,11,0,0,1-5.2,1.22A10.72,10.72,0,0,1,109.28,32.79Zm8.08-5.21A5,5,0,0,0,118.57,24a5.1,5.1,0,0,0-1.17-3.6,4,4,0,0,0-5.8,0A5.13,5.13,0,0,0,110.45,24a5.21,5.21,0,0,0,1.14,3.61,3.65,3.65,0,0,0,2.85,1.26A3.89,3.89,0,0,0,117.36,27.58Z" transform="translate(-1.22)"/><path class="cls-4" d="M136.1,14.92a6.76,6.76,0,0,1,3.5-.92v6.33H138a5,5,0,0,0-3.36,1,4.28,4.28,0,0,0-1.12,3.38v9.07h-6V14.21h6v3.25A7.94,7.94,0,0,1,136.1,14.92Z" transform="translate(-1.22)"/><path class="cls-4" d="M142.07,18.65a8.48,8.48,0,0,1,3.1-3.5,8,8,0,0,1,4.37-1.22,7.54,7.54,0,0,1,3.63.84,6.21,6.21,0,0,1,2.39,2.2V14.21h6V33.74h-6V31a6.43,6.43,0,0,1-2.43,2.21,7.53,7.53,0,0,1-3.62.83,7.9,7.9,0,0,1-4.34-1.24,8.56,8.56,0,0,1-3.1-3.53,11.78,11.78,0,0,1-1.14-5.3A11.67,11.67,0,0,1,142.07,18.65Zm12.25,1.79a4.19,4.19,0,0,0-6,0A4.82,4.82,0,0,0,147,23.94a5,5,0,0,0,1.25,3.55,4,4,0,0,0,3,1.31,4.05,4.05,0,0,0,3-1.29A4.91,4.91,0,0,0,155.56,24,4.87,4.87,0,0,0,154.32,20.44Z" transform="translate(-1.22)"/><path class="cls-4" d="M173.94,14.77a7.39,7.39,0,0,1,3.6-.84,8.08,8.08,0,0,1,4.38,1.22,8.46,8.46,0,0,1,3.09,3.5,11.67,11.67,0,0,1,1.14,5.29,11.78,11.78,0,0,1-1.14,5.3,8.54,8.54,0,0,1-3.09,3.53A8,8,0,0,1,177.54,34a7.39,7.39,0,0,1-3.58-.83A6.7,6.7,0,0,1,171.52,31v12h-6V14.21h6V17A6.53,6.53,0,0,1,173.94,14.77Zm4.88,5.65a4.11,4.11,0,0,0-3.06-1.28,4,4,0,0,0-3,1.3A4.87,4.87,0,0,0,171.49,24a4.91,4.91,0,0,0,1.24,3.54,4.19,4.19,0,0,0,6.07,0,4.92,4.92,0,0,0,1.26-3.55A4.82,4.82,0,0,0,178.82,20.42Z" transform="translate(-1.22)"/><path class="cls-4" d="M189.39,11.25a3,3,0,0,1-1-2.29,3,3,0,0,1,1-2.33,4,4,0,0,1,5.11,0,3,3,0,0,1,1,2.33,3,3,0,0,1-1,2.29,4,4,0,0,1-5.11,0Zm5.55,3V33.74h-6V14.21Z" transform="translate(-1.22)"/><path class="cls-4" d="M198.87,18.65a8.55,8.55,0,0,1,3.1-3.5,8.08,8.08,0,0,1,4.38-1.22,7.61,7.61,0,0,1,3.51.8,6.42,6.42,0,0,1,2.51,2.17V7.84h6v25.9h-6v-2.8a6.12,6.12,0,0,1-2.4,2.24,7.53,7.53,0,0,1-3.62.83A8,8,0,0,1,202,32.77a8.64,8.64,0,0,1-3.1-3.53,11.91,11.91,0,0,1-1.13-5.3A11.8,11.8,0,0,1,198.87,18.65Zm12.25,1.79a4,4,0,0,0-3-1.3,4.08,4.08,0,0,0-3,1.28,4.82,4.82,0,0,0-1.24,3.52,5,5,0,0,0,1.24,3.55,4.17,4.17,0,0,0,6.05,0A4.92,4.92,0,0,0,212.37,24,4.88,4.88,0,0,0,211.12,20.44Z" transform="translate(-1.22)"/></svg>